<svg width="111" height="82" viewBox="0 0 111 82" fill="none" xmlns="http://www.w3.org/2000/svg">
<path d="M46.8054 0H6.62557C4.86836 0 3.18312 0.698049 1.94058 1.94058C0.698048 3.18312 0 4.86836 0 6.62557V36.0142C0 37.7714 0.698048 39.4567 1.94058 40.6992C3.18312 41.9417 4.86836 42.6398 6.62557 42.6398H46.8054C48.5633 42.6398 50.2494 41.942 51.4932 40.6997C52.7371 39.4574 53.4369 37.7722 53.4391 36.0142V6.62557C53.4369 4.8676 52.7371 3.18238 51.4932 1.94008C50.2494 0.697783 48.5633 -1.34302e-06 46.8054 0Z" fill="#055B8B"/>
<path d="M36.0625 19.6159L22.2865 11.6291C21.9839 11.4576 21.6422 11.3672 21.2943 11.3667C20.9484 11.3698 20.6092 11.4629 20.3101 11.6368C20.011 11.8108 19.7624 12.0597 19.5887 12.3589C19.4124 12.6595 19.3217 13.0026 19.3263 13.3511V29.341C19.3229 29.6893 19.4136 30.0321 19.5887 30.3332C19.7624 30.6324 20.011 30.8813 20.3101 31.0552C20.6092 31.2292 20.9484 31.3223 21.2943 31.3254C21.6422 31.3249 21.9839 31.2345 22.2865 31.063L36.0625 23.068C36.373 22.901 36.6313 22.6512 36.8087 22.3464C36.9434 22.12 37.031 21.8686 37.0663 21.6075C37.1017 21.3463 37.084 21.0808 37.0143 20.8266C36.9447 20.5725 36.8245 20.335 36.6609 20.1284C36.4974 19.9217 36.2938 19.7502 36.0625 19.6241V19.6159Z" fill="#A9DEF2"/>
<path d="M104.763 35.5308H62.894C62.1682 35.5308 61.4495 35.6737 60.779 35.9515C60.1084 36.2292 59.4992 36.6363 58.9859 37.1495C58.4727 37.6627 58.0656 38.272 57.7879 38.9425C57.5101 39.6131 57.3672 40.3317 57.3672 41.0575V76.4649C57.3672 77.9315 57.9492 79.3381 58.9854 80.3759C60.0217 81.4136 61.4274 81.9977 62.894 81.9999H104.763C106.229 81.9977 107.635 81.4136 108.671 80.3759C109.708 79.3381 110.29 77.9315 110.29 76.4649V41.0575C110.29 39.5917 109.707 38.186 108.671 37.1495C107.634 36.113 106.229 35.5308 104.763 35.5308Z" fill="#055B8B"/>
<path d="M110.289 50.8882V76.4475C110.29 77.1761 110.147 77.8978 109.869 78.5713C109.591 79.2447 109.183 79.8568 108.668 80.3724C108.153 80.888 107.542 81.297 106.869 81.5761C106.196 81.8552 105.474 81.9988 104.746 81.9988H62.926C62.1974 81.9988 61.4759 81.8552 60.8028 81.5761C60.1297 81.297 59.5183 80.888 59.0035 80.3724C58.4886 79.8568 58.0805 79.2447 57.8024 78.5713C57.5243 77.8978 57.3817 77.1761 57.3828 76.4475V71.2815L78.2517 58.7601C78.5549 58.5801 78.9058 58.4969 79.2575 58.5219C79.6092 58.5468 79.945 58.6785 80.2197 58.8995L90.5516 67.5095C90.6635 67.6121 90.8098 67.669 90.9616 67.669C91.1134 67.669 91.2597 67.6121 91.3716 67.5095L110.289 50.8882Z" fill="#A9DEF2"/>
<path d="M90.8792 58.1957C92.3213 58.1974 93.7315 57.7712 94.9314 56.9712C96.1313 56.1711 97.0669 55.0332 97.6199 53.7013C98.1729 52.3694 98.3185 50.9035 98.0381 49.4888C97.7578 48.0742 97.0641 46.7745 96.045 45.7542C95.0258 44.7339 93.7269 44.0388 92.3126 43.7569C90.8983 43.4749 89.4321 43.6188 88.0996 44.1703C86.7671 44.7218 85.6281 45.6562 84.8268 46.8551C84.0254 48.0541 83.5977 49.4638 83.5977 50.906C83.5977 52.8379 84.3646 54.6909 85.7299 56.0577C87.0952 57.4246 88.9473 58.1936 90.8792 58.1957Z" fill="#A9DEF2"/>
<path d="M74.9065 5.89511L77.5223 11.2497C77.6141 11.4395 77.7523 11.603 77.9241 11.7253C78.0907 11.8544 78.2889 11.9365 78.498 11.9631L84.3446 12.7831C84.5854 12.814 84.8111 12.9169 84.9924 13.0783C85.182 13.2342 85.3217 13.4423 85.3942 13.6769C85.46 13.9129 85.46 14.1624 85.3942 14.3985C85.3363 14.6347 85.2143 14.8504 85.0416 15.0217L80.8104 19.1872C80.6602 19.3362 80.5478 19.519 80.4824 19.7202C80.4293 19.9246 80.4293 20.1391 80.4824 20.3434L81.4746 26.2228C81.5168 26.4628 81.4912 26.7099 81.4008 26.9362C81.3138 27.1643 81.1633 27.3626 80.9671 27.5079C80.771 27.6532 80.5374 27.7394 80.2938 27.7562C80.0529 27.7793 79.8104 27.7308 79.5968 27.6168L74.3735 24.8452C74.1875 24.7433 73.9788 24.6899 73.7667 24.6899C73.5546 24.6899 73.3459 24.7433 73.1599 24.8452L67.9365 27.6168C67.7229 27.7308 67.4805 27.7793 67.2395 27.7562C66.9961 27.7417 66.7624 27.6562 66.5671 27.5102C66.3722 27.365 66.2214 27.1685 66.1317 26.9426C66.0419 26.7168 66.0166 26.4704 66.0587 26.231L67.0509 20.3516C67.0907 20.1438 67.0766 19.9292 67.0099 19.7284C66.9446 19.5272 66.8321 19.3444 66.6819 19.1954L62.4507 15.0299C62.278 14.8586 62.156 14.6429 62.0981 14.4067C62.0324 14.1706 62.0324 13.9211 62.0981 13.6851C62.1706 13.4505 62.3103 13.2424 62.4999 13.0865C62.6812 12.9251 62.907 12.8222 63.1477 12.7913L68.9943 11.9713C69.2034 11.9447 69.4016 11.8626 69.5683 11.7335C69.7401 11.6112 69.8783 11.4476 69.9701 11.2579L72.5859 5.9033C72.6945 5.69109 72.8589 5.5125 73.0615 5.38671C73.267 5.26308 73.5023 5.19775 73.7421 5.19775C73.9819 5.19775 74.2172 5.26308 74.4227 5.38671C74.629 5.5067 74.7968 5.68307 74.9065 5.89511Z" fill="#A9DEF2"/>
</svg>
